<svg width="592" height="155" viewBox="0 0 592 155" fill="none" xmlns="http://www.w3.org/2000/svg">
<g clip-path="url(#clip0_1_116)">
<path d="M233.638 50.3121L232.36 50.1316L232.48 49.2742C233.112 49.2291 233.593 49.6803 233.638 50.3121Z" fill="#F6EB23"/>
<path d="M234.089 94.3835C234.165 94.218 234.044 93.8119 234.255 93.6164C234.796 93.12 236.616 93.4209 236.737 94.3384C237.022 96.6397 235.112 96.5344 233.397 96.0531C233.879 95.5567 233.864 94.8498 234.089 94.3985V94.3835Z" fill="#F6EB23"/>
<path d="M240.903 95.8425L243.836 96.7149C243.129 97.6324 240.407 97.5421 240.903 95.8425Z" fill="#F6EB23"/>
<path d="M245.942 54.7941C244.979 54.8693 245.371 54.2676 245.491 53.4253L247.221 53.666L245.942 54.779V54.7941Z" fill="#F6EB23"/>
<path d="M242.482 94.1123C243.385 93.1797 244.062 94.3379 245.28 94.3078C246.318 94.2777 247.642 93.2098 249.101 94.007L248.905 95.2855C246.784 94.4131 243.626 96.4287 242.482 94.1123Z" fill="#F6EB23"/>
<path d="M232.044 49.199L231.984 49.6352L230.254 49.3644C230.825 48.2664 231.156 48.8681 232.044 49.199Z" fill="#F6EB23"/>
<path d="M231.443 47.3487C231.172 46.9877 231.503 45.5889 232.706 46.2357C234.12 47.0028 231.924 48.0106 231.443 47.3487Z" fill="#F6EB23"/>
<path d="M252.951 144.501C253.493 142.38 254.726 144.591 255.599 144.682C256.651 144.772 257.9 143.779 258.487 145.99C257.449 145.659 256.441 145.93 255.403 145.99C254.455 146.035 252.365 146.787 252.966 144.516L252.951 144.501Z" fill="#F6EB23"/>
<path d="M246.965 120.074C250.409 120.661 253.884 120.209 257.554 119.893L257.614 119.457C257.975 119.638 257.945 119.788 257.554 119.893C259.103 119.758 260.577 119.773 262.067 119.247C262.157 118.6 260.186 118.058 259.825 118.028C258.923 117.953 258.953 118.51 258.622 118.735C258.427 117.306 256.336 118.103 254.741 118.164C254.125 118.179 251.553 118.48 251.372 118.434C250.981 118.314 250.861 117.276 250.5 117.096C249.627 116.644 247.988 116.81 246.98 117.005C245.807 117.231 244.573 117.532 246.333 118.449C245.626 118.871 245.175 119.397 245.19 120.254C245.31 120.45 246.589 120.014 246.98 120.089L246.965 120.074ZM247.687 119.292C247.837 119.547 247.627 119.668 247.025 119.638C247.416 119.547 247.657 119.442 247.687 119.292Z" fill="#F6EB23"/>
<path d="M244.829 81.478C245.25 81.478 245.716 81.6736 246.122 81.6585C246.032 83.4485 244.002 82.1098 244.829 81.478Z" fill="#F6EB23"/>
<path d="M588.345 40.6854L588.285 41.1066L586.495 41.2871L586.63 40.4297L588.345 40.6854Z" fill="#F6EB23"/>
<path d="M591.699 26.3058C591.414 26.035 590.601 26.1554 590.541 26.0651C590.391 25.8696 591.173 25.0574 591.143 24.6362C591.098 24.0345 589.639 23.9293 590.12 22.9215C590.361 22.756 590.857 22.741 591.068 22.4101C590.616 21.2519 589.323 21.6881 588.586 21.3722C587.668 20.9811 587.082 20.4697 587.563 19.462C588.586 19.6425 589.022 19.9734 588.992 18.8001C589.819 18.74 591.158 19.5372 591.699 18.3338C590.812 18.2436 589.323 15.8069 589.157 15.7317C587.247 14.8894 587.834 16.4085 587.488 16.7395C587.187 16.9952 586.465 16.5439 586.239 16.6191L583.667 16.2431C584.104 15.3406 585.202 16.1077 585.262 14.5133C585.322 13.0844 583.803 12.8588 583.742 12.7234C583.111 11.505 586.856 11.49 586.751 10.3168C584.164 7.33857 584.585 6.49625 580.208 6.91741C578.222 7.11295 577.455 8.03048 575.635 8.00039C574.101 7.3837 572.732 6.46617 571.033 6.43609L572.161 4.8417C571.875 4.75145 571.514 4.81161 571.303 4.70632C570.987 4.55591 570.16 4.07458 570.085 4.08963C569.619 3.90913 569.438 2.88631 569.273 2.76598C568.821 2.45011 568.475 2.58548 568.129 2.46515C566.52 1.92366 565.873 2.34482 564.249 1.87854C563.602 1.69804 562.85 1.36713 562.173 1.12647C561.812 1.00614 561.406 0.675225 560.925 0.494729C559.541 -0.0016382 560.173 0.29919 559.21 0.239024C557.194 0.103652 553.223 0.163817 551.268 0.359356C550.862 0.40448 550.396 0.539853 549.914 0.600018C548.876 0.72035 547.192 1.41225 546.695 1.44234C546.304 1.683 545.853 1.75821 545.342 1.683C542.86 1.96879 540.318 1.69804 537.836 1.87854C537.249 1.92366 536.648 2.01391 536.061 2.04399C534.933 2.1192 533.775 2.40499 532.918 2.46515C531.82 2.52532 530.767 2.38995 529.849 2.43507C528.917 2.49524 527.788 2.35986 526.781 2.43507C525.592 2.49524 524.765 2.84119 524.073 2.90135C519.456 3.27739 515.364 2.87127 510.386 3.06681C510.04 3.06681 509.528 3.27739 509.032 3.30747C506.926 3.36764 504.85 3.56318 502.82 3.69855C500.443 3.84896 498.743 3.56318 496.171 4.01442C494.938 4.225 493.78 4.6612 492.546 4.78153C490.426 4.45062 489.448 4.9169 487.703 4.93195H487.688C486.65 4.93195 485.733 4.85674 484.605 4.9169C483.943 4.94699 483.386 5.03724 482.815 5.08236C481.837 5.15757 480.588 4.64616 479.671 5.48848C478.889 5.48848 478.182 5.59377 477.445 5.60881C476.106 5.62385 474.752 5.86451 473.444 5.87955C473.444 5.87955 473.444 5.87955 473.429 5.87955C472.767 5.87955 471.714 5.29294 471.233 5.98484C471.263 5.98484 471.293 5.98484 471.323 5.99989C471.293 5.99989 471.263 5.99989 471.233 5.99989C468.811 5.66898 468.285 6.10518 466.54 6.13526C464.825 6.16534 462.719 5.69906 461.05 6.22551C461.05 6.22551 461.05 6.22551 461.035 6.22551C460.854 6.25559 460.779 6.22551 460.644 6.18038C460.629 6.18038 460.613 6.18038 460.583 6.18038C460.583 6.18038 460.538 6.18038 460.523 6.18038C459.395 6.02997 458.011 6.12022 456.763 6.25559C456.567 6.30071 456.312 6.31576 455.996 6.3308C455.996 6.3308 455.981 6.3308 455.966 6.3308C455.906 6.3308 455.86 6.3308 455.8 6.3308C453.98 6.51129 452.025 7.32353 451.228 7.41378C451.047 7.42882 450.837 7.41378 450.626 7.36865C449.994 7.26336 449.242 7.00766 448.671 7.0227C447.843 7.05278 446.73 7.00766 446.023 7.06783C445.858 7.08287 445.121 7.32353 445.091 7.36865C443.572 6.63163 442.594 7.50403 441.511 7.71461C441.105 7.78981 440.217 7.71461 439.947 7.8199C439.826 7.84998 439.721 7.8951 439.616 7.92519C439.721 7.68452 439.766 7.4589 439.796 7.44386L437.946 8.04552C435.449 7.71461 432.456 8.34635 429.929 8.60205C423.506 9.24883 417.038 10.1513 410.646 10.9786C409.954 9.89561 407.803 10.4672 406.765 10.407L406.705 10.8282C406.359 10.6627 406.389 10.5123 406.765 10.407C405.562 10.3318 403.366 9.62487 402.463 9.76024C402.087 9.82041 401.636 10.7379 400.974 10.8583C399.38 11.1591 399.365 10.3769 397.334 11.6404C397.184 11.7307 396.958 11.7758 396.748 11.8209C396.627 11.851 396.522 11.8811 396.417 11.9412C396.582 12.0465 396.733 12.1518 396.838 12.2571C396.702 12.2722 396.567 12.3022 396.432 12.3022C396.341 12.3173 396.251 12.3173 396.176 12.3323C395.574 12.3925 395.018 12.4527 394.506 12.4827C393.303 12.573 391.242 12.6783 390.069 12.6933C390.205 12.7685 390.28 12.8136 390.31 12.8738H390.054L390.084 12.6933C388.354 12.7384 386.76 12.3624 384.85 12.3474H384.835C383.752 12.3173 382.413 11.475 381.706 12.7535C379.555 12.0917 378.036 12.4677 375.99 12.7685C375.299 12.7685 374.471 12.4226 373.84 12.4527C373.268 12.4527 372.471 12.7084 371.989 13.0543C370.982 12.8889 370.455 13.0092 369.869 13.0543H369.839C369.613 13.0242 369.432 13.0393 369.327 13.0844C367.492 13.0543 366.92 13.3401 365.747 13.4303C365.612 13.4303 365.461 13.3401 365.311 13.3702C363.521 13.5206 361.626 13.0694 359.956 13.8816C358.151 13.8214 356.03 14.2125 354.15 14.3328C353.097 14.393 352.06 14.6337 351.007 14.7389C349.773 14.8593 349.051 14.9796 347.863 15.1601C347.683 15.1601 348.194 14.5735 346.539 15.4008C346.344 15.476 346.178 15.7016 346.043 15.7618C344.749 16.2732 343.531 15.0699 342.042 15.1751C341.696 15.2052 337.996 16.2882 336.236 16.4838C335.77 16.5439 334.717 17.1155 334.596 17.1305C334.055 17.0102 334.536 15.5512 333.498 15.6414C333.122 15.6715 333.273 16.4838 332.912 16.4537C332.566 16.4386 332.054 15.852 331.363 15.837C330.626 15.837 329.753 16.7244 329.407 16.6492C329.076 16.589 328.821 15.7618 327.843 15.7166C327.256 15.7016 326.82 16.3033 326.564 16.3634C325.737 16.3033 324.504 15.7317 323.917 16.3935C323.661 16.3935 323.24 16.7094 322.984 16.7094C322.608 16.6943 322.624 16.1077 320.834 16.3785C318.728 16.7094 316.607 16.8598 314.546 17.1907C313.644 17.3411 312.756 17.5667 311.839 17.657C309.207 16.6642 310.425 17.672 309.477 18.0781C308.8 18.3489 306.048 17.9729 305.055 18.8302C304.784 18.7851 304.484 18.74 304.198 18.7099C303.987 18.6648 303.31 19.1762 302.844 18.9355C303.581 15.9272 300.618 18.2586 299.535 18.3489C298.693 18.4091 297.67 17.2659 296.752 18.4692C296.346 18.379 295.895 18.3038 295.459 18.2737C294.947 18.2286 294.15 17.9729 293.744 18.0029C293.518 18.033 293.383 18.2737 293.248 18.3639C291.593 17.7924 289.954 18.1233 288.449 18.0932C287.893 18.0781 287.231 17.8074 286.72 17.8375C286.043 17.8676 285.291 18.2737 284.494 17.9428C284.238 17.9428 284.148 18.1233 283.997 18.3038C282.313 17.7623 280.793 18.3188 279.124 18.4542C278.161 18.5294 276.913 18.0029 275.995 18.8603C269.362 18.379 261.33 19.7929 254.606 20.4998C254.11 20.5449 253.373 20.199 252.876 20.2441C251.417 20.3795 252.305 21.8084 252.185 21.8987C251.162 22.6507 251.688 20.4547 250.801 20.8157L248.484 23.102C247.717 23.102 247.07 22.1393 245.837 23.1471C245.1 23.1621 244.333 23.2373 243.611 23.2524C239.444 23.3426 233.518 23.0268 234.842 28.9681L240.512 29.1637C237.91 29.8405 237.098 29.4495 234.932 31.1943C234.616 31.841 234.285 32.0817 233.939 31.9313C233.413 32.4878 233.548 32.5931 233.308 33.1647C233.277 33.2399 232.51 33.4204 232.932 34.007C233.247 34.4432 233.894 34.5786 234.421 34.6538L233.864 35.4359C233.232 36.0376 233.052 36.925 232.676 37.4515C232.24 38.0682 230.916 38.9556 230.931 40.2642C231.112 39.6927 231.337 39.6024 231.533 39.8882C231.623 40.0085 231.713 40.174 231.788 40.3996C232.24 40.5199 232.601 40.7305 232.871 41.0163C232.947 41.0013 232.992 41.0013 233.007 41.0163C233.022 41.0464 233.022 41.0915 233.007 41.1818C232.962 41.5578 232.751 42.4452 233.458 42.8213C234.06 43.1371 235.428 42.6408 236.18 43.2575C236.421 43.4229 236.872 43.7087 236.978 43.814C236.918 44.1449 236.902 44.4307 236.918 44.6714C236.361 45.1376 235.128 45.4084 235.729 46.2658C235.955 46.5816 238.407 45.8446 238.768 46.3109C238.873 46.4763 238.572 47.4691 238.978 47.8752C239.174 48.0557 239.866 47.7549 240.287 48.0406C240.362 48.0858 240.437 48.161 240.497 48.2813C240.512 48.2813 240.512 48.2813 240.512 48.2813C240.768 48.8078 239.866 50.5977 239.971 50.7932C240.061 50.9436 240.813 51.2294 241.114 51.455C241.535 51.7709 241.58 52.3575 242.498 52.538C243.521 52.7486 246.604 52.6283 247.567 52.4327C248.003 52.538 248.364 52.6433 248.71 52.6884C249.071 53.1547 248.409 54.1023 248.605 54.343C248.74 54.5235 250.65 54.4784 250.771 54.6589C250.876 54.8394 250.38 56.2232 250.5 56.4037C250.62 56.5691 252.064 56.4638 252.245 56.6443C252.275 56.6895 252.23 56.9602 252.17 57.261C252.109 57.5167 252.064 57.7875 252.049 57.9379C251.974 59.6376 252.726 59.3969 252.696 59.5774C252.561 60.3144 251.387 60.5852 251.538 61.5328C251.598 61.9539 252.365 62.4052 252.636 62.8564C252.997 63.4731 252.756 64.6163 254.335 64.887C254.381 64.887 254.456 64.887 254.516 64.9171C254.486 65.0074 254.441 65.0826 254.396 65.1427C253.959 65.6993 252.726 65.1427 252.185 65.7444C250.921 67.1884 251.944 67.5945 252.215 67.8652C252.17 68.1661 252.139 68.512 252.139 68.873V68.9482C252.2 69.4295 252.275 70.2267 252.305 70.7231C250.981 72.7386 250.304 71.5203 249.206 73.7915C248.845 74.5587 248.259 75.1302 248.394 76.2884L252.32 76.4539C252.29 77.8377 251.041 77.6421 250.35 77.9129C247.657 78.9959 249.086 78.2137 248.56 77.7174C247.747 76.8901 247.311 78.6048 247.131 78.7552C246.98 78.8906 246.77 78.9808 246.634 79.1162C246.529 79.2365 245.852 79.2365 245.792 79.6427C245.717 79.9435 246.303 80.9061 246.258 81.7033C248.138 81.6732 249.026 82.0794 251.117 81.5529C251.568 81.4476 252.004 81.2521 252.47 81.3122C252.004 82.9518 250.981 81.7334 249.567 83.0871C249.763 83.042 250.049 82.9969 250.35 82.9668C250.109 83.0119 249.838 83.0571 249.567 83.0871C248.981 83.6286 248.71 84.4108 248.379 85.1027C248.123 85.6442 247.447 86.3361 247.462 86.7422C247.462 87.4191 248.063 88.0508 248.304 88.6073C248.349 88.7277 248.048 89.224 248.229 89.4196C248.56 89.7354 249.658 89.5098 249.868 89.7505C249.989 89.9009 249.673 92.9242 249.868 93.1799C249.958 93.2852 251.568 94.0222 252.26 94.4885C253.478 95.2857 253.373 94.3832 254.245 94.4885C254.802 94.5487 255.915 95.8423 256.938 95.6166C256.787 96.0528 255.223 96.0829 254.651 96.1431C253.192 96.3236 251.989 96.7297 251.011 96.9252C250.575 97.0155 250.094 97.0757 249.658 97.1509C247.131 97.6773 242.633 98.309 240.227 98.3692C240.588 98.4294 240.738 98.4895 240.588 98.8656C240.542 98.7152 240.302 98.5497 240.227 98.3692C238.091 98.4444 233.623 96.128 233.518 99.1213C234.977 99.8132 237.279 99.0761 238.512 99.4221C239.655 99.753 239.745 101.227 240.873 101.558C242.212 101.949 245.942 100.956 247.777 100.836C247.416 100.656 247.447 100.505 247.838 100.4L247.777 100.836C250.665 100.64 253.824 101.122 256.787 100.34C257.615 100.129 257.765 99.2416 258.156 99.0912C258.457 98.9558 259.404 99.6176 260.322 99.4672C261.194 99.3319 262.007 98.3241 262.698 98.2489C263.496 100.355 266.85 98.7904 268.73 99.1514L268.79 98.7152C268.174 98.9257 267.662 98.7904 267.993 98.1586C268.264 98.279 268.52 98.5497 268.79 98.7152C268.82 98.7302 268.85 98.7603 268.896 98.7753C269.407 98.9709 269.948 98.4294 269.452 100.129L268.655 99.5876C268.294 100.084 267.587 100.671 267.106 101.107C266.76 101.423 264.864 102.882 264.639 102.927C264.338 102.987 263.676 102.656 263.225 102.791C261.931 103.182 259.269 103.558 259.074 104.732C258.667 104.657 257.63 103.874 257.434 104.04C257.193 104.235 257.238 105.258 257.615 105.619C258.622 106.567 261.209 105.845 262.458 105.679C263.21 105.574 263.947 105.484 264.684 105.574C264.804 106.025 264.955 106.416 264.925 106.913C264.91 107.259 264.834 107.905 264.729 108.206C264.639 108.432 263.285 109.695 263.556 110.207C263.616 110.312 265.165 111.004 265.707 111.5C268.73 114.253 265.662 113.651 265.556 114.479C263.977 114.96 262.232 113.591 260.728 114.418C261.661 114.99 260.728 116.284 261.224 116.72C262.007 117.382 264.052 117.171 265.09 117.502L263.676 118.179L264.443 118.946C264.654 120.54 262.864 119.653 262.789 121.112C263.3 121.413 264.804 120.781 264.985 121.007C265.03 121.052 264.91 121.744 265.241 122.36C265.466 122.766 266.203 122.766 265.993 123.338L261.856 124.481C260.788 124.24 258.171 124.09 257.043 124.21C256.577 124.255 256.426 124.406 256.11 124.511C254.32 123.849 253.598 123.774 251.809 123.864C249.342 123.97 250.455 124.12 249.041 124.767C248.65 124.947 247.04 124.301 247.116 125.79L248.274 126.843C247.627 126.828 247.371 127.941 247.146 128.437C247.146 128.482 246.589 128.602 246.619 129.009C247.732 130.799 249.582 129.64 251.026 129.535C251.282 129.535 251.568 129.535 251.839 129.535C251.929 129.535 252.034 129.535 252.124 129.535C255.719 129.61 259.856 130.302 263.195 129.189C263.887 128.963 264.293 128.723 264.383 127.941L264.428 127.504C264.428 127.504 264.503 127.55 264.534 127.565C264.774 127.715 264.729 127.85 264.368 127.941C266.354 127.941 265.601 129.67 267.121 130.107C265.331 132.799 269.994 133.671 271.062 132.844C271.302 132.649 271.182 131.957 271.287 131.626C271.889 129.971 272.325 130.377 272.385 130.242C273.047 128.723 271.753 129.324 271.377 128.888C271.167 128.648 271.423 128.151 271.377 128.106C271.332 128.046 271.107 128.106 270.941 128.046C271.107 127.685 271.242 127.715 271.377 128.106L272.731 127.865C272.37 127.67 272.4 127.535 272.791 127.429L272.731 127.865C274.085 128.452 273.558 130.498 273.649 130.633C274.055 131.19 275.529 130.543 275.845 130.528C275.664 130.422 275.574 130.332 275.619 130.257C275.649 130.197 275.754 130.137 275.92 130.092L275.86 130.528C279.515 130.573 276.431 132.152 276.386 132.573C276.311 133.521 276.928 134.198 276.943 135.085C276.025 135.612 274.07 135.537 275.273 137.477C274.295 138.665 274.205 137.642 272.897 137.582C272.536 137.567 272.235 137.883 272.129 137.898C271.543 137.883 270.64 136.996 269.843 138.424C269.708 138.394 269.557 138.379 269.407 138.364C267.798 138.033 266.354 138.154 264.609 138.094C264.338 138.094 264.037 137.988 263.751 137.958C263.616 137.958 263.481 137.898 263.315 137.898C261.54 137.778 261.375 138.349 260.758 138.334C260.457 138.334 260.051 137.718 258.532 137.627C257.148 137.537 254.05 137.417 252.937 138.094C252.185 138.545 251.914 139.462 251.312 140.064C250.47 140.891 249.477 139.568 250.861 141.764C252.425 144.261 252.892 143.087 255.418 142.997C257.028 142.922 257.855 142.576 258.502 142.561C259.074 142.531 259.811 143.268 260.472 143.238C260.878 143.238 260.969 142.335 261.676 142.155C263.029 141.794 265.436 142.365 267.015 141.523C267.783 141.553 267.617 144.08 268.986 141.403C268.926 141.343 269.121 141.012 269.046 140.966C269.136 140.681 269.211 140.485 269.302 140.365C269.542 139.974 269.753 140.245 269.903 141.102C270.039 140.831 270.385 140.56 270.46 140.305C270.64 140.184 270.821 140.139 271.001 140.154H271.031C271.468 140.184 271.874 140.53 272.175 140.56C272.25 140.199 272.415 139.974 272.656 139.838C272.912 139.658 273.227 139.643 273.543 139.733C273.874 139.853 274.175 140.079 274.371 140.455C273.634 140.455 272.791 140.605 272.16 140.56L272.099 140.997C272.054 141.072 272.009 141.132 271.979 141.177H271.964C271.844 141.297 271.738 141.207 271.663 140.921C271.062 140.921 270.46 141.102 269.873 141.102C269.587 141.102 269.287 140.982 269.016 140.966C269.362 141.162 269.347 141.312 268.956 141.403C269.362 141.764 270.415 141.839 270.475 142.937C270.535 142.907 270.746 142.997 270.911 142.997C270.746 143.358 270.61 143.328 270.475 142.937C270.144 143.163 270.355 144.321 268.55 143.975C268.189 143.9 266.985 142.832 266.038 143.147L267.692 143.839L266.73 144.561C267.181 144.561 267.632 145.118 267.948 145.193C269.031 145.434 270.249 145.148 271.438 145.268C271.889 145.313 275.138 145.554 273.904 146.502C272.957 147.209 269.482 145.419 268.174 146.517C268.023 146.517 267.888 146.472 267.737 146.472C267.166 146.396 266.534 146.216 266.008 146.216C264.684 146.216 263.255 146.848 262.247 146.547C261.119 146.201 260.578 143.915 260.021 145.87C259.886 146.381 260.803 146.637 258.848 146.908L258.788 147.344C258.427 147.164 258.457 147.013 258.848 146.908C258.457 146.968 257.163 146.998 256.622 147.013C255.268 147.043 253.538 146.156 252.2 147.224C251.478 147.103 250.756 147.013 250.049 146.893C250.019 147.585 249.703 148.397 249.718 149.044C249.733 149.871 249.913 150.743 250.891 150.879C253.012 151.195 253.132 149.179 253.478 149.149C254.17 149.059 256.14 149.585 257.088 149.721C257.359 150.879 257.569 151.826 258.983 151.751L259.675 150.097C262.127 150.894 261.992 152.353 262.653 152.669C263.3 152.985 264.714 152.879 264.925 153.135C265.15 153.391 264.248 154.609 265.406 154.474C265.677 154.248 266.82 153.601 266.684 153.346C266.579 153.165 265.015 153.571 266.519 151.556L265.271 151.15C266.323 150.262 265.617 149.706 267.271 149.465C268.504 149.149 268.459 150.428 268.73 150.563C270.836 151.465 269.798 149.706 271.092 148.773C271.107 148.758 271.122 148.758 271.137 148.743C271.152 148.788 271.182 148.833 271.197 148.878C272.746 152.323 273.363 149.269 273.754 149.074C274.16 148.878 275.679 148.938 276.642 148.683C276.988 148.577 277.364 148.412 277.574 148.382C278.432 148.863 281.861 147.931 281.154 149.345C280.793 150.082 279.936 150.473 281.786 151.18C283.696 151.917 287.472 152.323 289.307 152.323C291.774 152.338 294.496 151.134 295.97 151.21C297.038 151.255 297.76 151.932 298.768 151.962C300.558 152.022 302.979 151.721 304.83 151.586C310.485 152.022 314.652 150.909 320.051 149.901C320.066 149.901 320.097 149.901 320.112 149.886C321.18 149.585 322.428 150.999 322.744 151.029C323.3 151.089 326.429 150.789 327.347 150.804C328.971 150.864 329.633 151.646 331.438 150.292C331.633 150.202 331.814 150.082 331.964 149.991C331.904 150.097 331.874 150.217 331.859 150.367C332.461 151.511 333.378 150.337 334.311 150.322C337.515 150.277 339.831 150.052 342.944 149.841C349.307 149.405 357.279 149.495 363.476 148.066C364.078 147.931 369.207 147.765 371.869 147.359C372.666 147.615 373.509 148.186 374.486 148.201C375.945 148.231 377.149 147.103 378.457 146.953C381.405 146.622 388.881 145.735 392.325 145.554C392.235 145.554 392.145 145.569 392.055 145.584C392.205 145.584 392.355 145.554 392.521 145.539C393.784 145.434 395.469 145.329 397.74 145.223C398.222 145.148 398.673 145.088 399.154 145.028C399.575 145.073 400.222 145.088 401.049 145.103C403.892 144.652 407.758 144.125 410.616 143.749C410.856 143.719 411.097 143.674 411.368 143.659C411.669 143.599 411.97 143.569 412.27 143.539C412.571 143.584 412.842 143.554 413.068 143.433C416.963 142.937 420.904 142.516 424.74 142.155C436.652 141.057 449.212 141.117 461.546 140.079C462.403 139.989 463.366 139.372 463.501 139.357L463.562 138.921C463.923 139.116 463.892 139.252 463.501 139.357C466.374 139.162 469.262 140.064 472.692 139.116C473.278 138.951 473.354 138.289 473.429 138.274C473.489 138.259 473.549 138.259 473.609 138.274H473.639C474.151 138.424 474.647 139.312 474.722 138.184C474.722 138.109 474.722 138.048 474.722 137.988L474.782 138.169L475.008 138.921L475.429 138.966C475.489 138.289 475.73 138.199 476.211 138.064H476.241C478.182 137.913 480.137 137.763 482.093 137.642C484.905 137.703 487.838 137.883 490.215 137.236C494.923 137.266 503.03 137.733 507.167 135.807C507.603 135.612 508.024 135.431 508.37 135.115C509.032 137.507 509.393 135.461 510.009 134.469C510.085 134.348 510.385 134.258 510.506 134.108C510.566 134.198 510.867 134.108 510.942 134.168C511.108 134.363 511.032 134.86 511.544 135.085C512.251 135.416 512.476 134.86 512.597 134.86C513.484 134.739 514.266 134.423 515.244 134.815C515.334 135.326 514.883 136.334 514.913 136.965C516.733 136.259 517.861 137.041 519.711 137.236C520.147 136.349 519.2 136.138 519.049 135.807C517.605 132.679 519.576 134.093 521.652 133.897C525.382 133.566 528.841 132.784 532.376 132.092C538.393 130.919 544.695 130.513 550.727 130.001C552.396 129.866 553.494 130.332 555.6 129.851C555.826 129.806 556.352 130.061 556.457 129.986C558.247 129.926 560.052 129.7 561.827 129.475C562.835 129.339 563.843 129.971 564.805 128.587C565.828 127.083 565.166 126.948 564.053 126.286C563.783 126.121 563.512 125.82 563.256 125.73C563.662 124.872 563.798 123.549 564.128 122.781C568.069 122.345 565.407 118.871 566.821 116.599C566.956 116.599 567.107 116.66 567.257 116.66C568.175 120.856 569.965 115.577 569.258 114.779C569.032 114.539 568.009 114.629 567.573 114.479C567.799 114.163 568.34 113.516 568.611 113.335C569.017 113.065 570.28 113.05 570.491 112.478C570.912 111.44 566.46 108.026 572.642 108.642C573.514 108.733 574.191 109.364 574.673 109.425C574.928 109.455 574.988 108.673 575.349 108.642C576.222 108.552 579.847 109.5 579.365 107.199C579.019 105.589 578.508 106.191 579.215 104.386C579.546 103.528 580.418 102.235 580.509 101.257C580.644 99.8132 579.245 99.1514 579.2 99.031C579.155 98.8355 579.636 98.2489 579.757 97.8728C580.99 97.0907 582.464 96.9102 583.878 96.7297C584.013 96.7146 584.164 96.8199 584.314 96.7899C585.337 96.6695 585.743 97.3013 585.713 96.3386C585.713 95.8573 584.825 96.0679 584.449 95.9325C584.901 94.293 585.472 95.5414 585.878 95.2707C586.059 94.7292 585.728 93.6462 585.277 93.4206C584.66 93.1047 583.788 93.6612 583.291 92.3978C583.216 92.2022 582.855 89.4497 582.87 89.2992C582.915 89.0135 583.547 89.0285 583.758 88.8029C586.149 86.1405 583.697 86.6068 583.727 85.9149C583.727 85.7495 584.75 82.9668 584.856 82.8013C585.442 81.9891 586.691 82.3501 586.871 82.1696C587.172 81.8989 586.961 80.7557 587.458 80.139C587.804 79.7179 590.556 79.2967 588.466 77.8828C588.105 77.6421 587.608 77.9731 587.578 77.958C587.367 77.8226 587.292 77.5369 587.217 77.4767L588.721 76.153C588.826 75.4611 586.841 75.4611 586.179 75.5514C586.014 75.5664 585.788 75.9124 585.683 75.9124C583.833 75.6266 584.57 74.0472 584.179 73.1899C583.622 71.9414 581.727 71.791 583.111 69.7003C583.938 68.4669 587.322 69.8356 588.526 69.7304C588.872 69.6852 588.932 68.9031 589.218 68.9181C590.496 68.9783 590.421 70.7381 591.308 67.6697C591.699 66.3009 591.353 66.6318 590.21 66.4513C590.21 66.3009 590.015 65.1728 589.97 65.0976C589.368 64.3004 590.165 62.5105 589.925 62.0592C589.804 61.8487 589.233 61.984 589.142 61.8938C588.18 61.0815 588.586 60.3746 588.405 60.164C588.029 59.7128 587.443 59.5774 586.931 58.9306C586.284 58.0883 585.638 57.4265 585.111 56.4488C583.803 54.0572 584.48 52.8539 583.983 51.5453C583.592 50.5074 579.531 48.5972 583.592 46.1153C583.592 46.1153 583.622 46.1003 583.637 46.1003C583.878 46.1003 584.75 46.5666 584.54 45.6039C584.299 44.4758 582.72 44.7014 584.57 42.3399C584.57 42.3399 584.585 42.3249 584.6 42.3099C585.081 41.7082 585.893 41.633 585.939 41.5578C586.029 41.4074 585.683 39.7979 586.375 39.2865C585.758 38.7751 584.72 40.0988 585.171 38.4442L586.826 38.2938C585.999 38.2637 584.344 36.2331 584.299 35.812C584.149 34.6087 585.532 34.4432 585.863 33.9168C586.074 33.5858 585.126 33.7814 585.066 33.285C585.006 32.7134 585.307 31.6605 585.427 30.9987L585.863 31.0589C586.179 31.0589 586.555 31.5853 586.661 31.6154L586.209 31.7508L586.465 32.909L588.691 32.7886L588.45 31.4349L588.511 30.9987C588.616 30.9987 589.323 30.4271 590.361 30.3971C590.421 30.3971 590.827 31.3447 591.444 30.5776C591.985 29.9007 592.316 26.8172 591.729 26.2757L591.699 26.3058Z" fill="#F6EB23"/>
<path d="M274.13 153.18C274.07 153.992 271.543 153.797 271.407 153.646C271.693 151.811 272.956 152.849 274.13 153.18Z" fill="#F6EB23"/>
<path d="M279.71 126.888C277.694 126.467 276.085 125.429 274.897 123.774C273.708 122.105 272.821 119.608 272.219 116.284C271.392 110.944 271.001 97.8428 271.061 76.9803C271.121 56.1179 271.512 41.4224 272.219 32.8639C272.58 29.5397 273.739 27.0128 275.694 25.283C277.649 23.5532 281.365 22.6959 286.84 22.6959C292.315 22.6959 295.955 23.1471 298.166 24.0346C300.362 24.922 302.001 26.7119 303.069 29.3893C304.137 32.0667 305.446 36.91 306.995 43.9193C311.869 35.9624 317.178 30.3971 322.954 27.2534C328.73 24.1098 334.807 22.5304 341.229 22.5304C347.652 22.5304 353.323 23.9594 358.256 26.8172C363.19 29.6751 367.056 33.7062 369.838 38.9406C372.636 44.175 374.095 50.1164 374.2 56.7647C374.32 57.3663 374.14 66.3912 373.659 83.8543C373.538 87.5394 373.478 90.6981 373.478 93.3003C373.478 95.9024 373.418 98.9408 373.298 102.385C373.298 103.333 373.508 104.25 373.929 105.153C374.351 106.055 374.967 106.973 375.795 107.921C376.502 108.988 377.043 109.846 377.389 110.508C377.735 111.169 377.93 112.027 377.93 113.095C377.93 115.592 376.622 118.028 374.005 120.405C371.387 122.781 368.214 124.752 364.468 126.286C360.723 127.835 357.309 128.602 354.225 128.602C350.059 128.602 346.524 127.264 343.621 124.586C340.703 121.909 338.958 117.667 338.372 111.831C338.131 108.748 338.071 99.4673 338.191 84.0197C338.311 79.1463 338.402 74.7843 338.462 70.9187C338.522 67.053 338.492 64.1801 338.372 62.2698C338.131 58.4644 337.243 55.2605 335.694 52.6433C334.145 50.0261 331.422 48.7175 327.497 48.7175C324.879 48.7175 321.976 49.7253 318.758 51.7409C315.554 53.7564 312.786 56.1329 310.47 58.8705C308.153 61.608 306.995 64.1651 306.995 66.5416C306.995 74.0322 307.055 80.2744 307.176 85.2531C307.296 103.799 307.176 114.133 306.815 116.269C306.213 119.593 305.295 122.059 304.047 123.669C302.799 125.278 301.009 126.316 298.692 126.782C296.376 127.249 292.841 127.489 288.088 127.489C284.523 127.489 281.726 127.279 279.71 126.873V126.888Z" fill="#303240"/>
<path d="M399.335 116.013C390.896 107.153 386.625 94.2329 386.504 77.2361C386.504 68.0909 388.024 59.412 391.047 51.2144C394.07 43.0169 399.485 36.0978 407.262 30.4423C415.038 24.8017 425.702 21.9739 439.255 21.9739C448.761 21.9739 456.838 23.6736 463.501 27.0579C470.15 30.4423 475.143 34.8945 478.483 40.4298C481.807 45.95 483.476 52.1019 483.476 58.8856C483.476 64.12 482.589 69.0536 480.799 73.6863C479.49 77.7325 475.038 80.6655 467.427 82.5156C459.816 84.3507 452.16 85.2833 444.429 85.2833C440.142 85.2833 435.6 85.0125 430.786 84.4861C425.973 83.9596 422.017 83.2677 418.934 82.4404C419.174 96.2334 426.184 103.062 439.962 102.942C444.233 102.942 448.219 102.325 451.904 101.077C455.59 99.8283 459.455 98.1888 463.486 96.1732C464.915 95.5866 466.224 95.0451 467.412 94.5788C468.6 94.0975 469.488 93.8719 470.09 93.8719C472.225 93.8719 474.211 94.6089 476.061 96.098C477.911 97.5871 479.475 99.4523 480.784 101.708C482.559 105.273 483.311 108.417 483.01 111.154C482.709 113.892 480.904 116.449 477.58 118.826C472.346 122.631 466.585 125.429 460.283 127.204C453.98 128.979 446.851 129.821 438.894 129.701C420.949 129.46 407.758 124.917 399.32 116.058L399.335 116.013ZM429.733 68.1511C434.667 68.5121 439.661 68.5422 444.715 68.2413C449.769 67.9405 453.303 67.3238 455.319 66.3762C455.68 60.4348 454.401 55.9826 451.483 53.0044C448.565 50.0262 444.384 48.5521 438.924 48.5521C435.239 48.5521 432.065 49.1538 429.387 50.342C426.71 51.5303 424.574 53.4255 422.965 56.0427C421.355 58.66 420.438 62.1044 420.212 66.3762C421.641 67.2035 424.815 67.8051 429.748 68.1661L429.733 68.1511Z" fill="#303240"/>
<path d="M511.393 124.571C506.58 121.653 502.985 117.682 500.608 112.629C498.232 107.575 496.803 101.483 496.337 94.3532C495.855 89.7204 495.735 81.7034 495.976 70.2869C495.976 66.3611 496.036 62.0292 496.156 57.2761H494.201C493.253 57.2761 492.275 57.216 491.253 57.0956C490.245 56.9753 489.387 56.7346 488.665 56.3887C487.597 55.9073 486.65 54.4935 485.808 52.1169C484.98 49.7404 484.559 47.0028 484.559 43.9193C484.679 39.4069 485.146 36.2783 485.988 34.5636C486.815 32.8338 488.365 31.8561 490.621 31.6155L496.863 31.089C497.104 28.1259 497.284 25.5087 497.389 23.2524C497.991 18.4994 499.495 15.2955 501.932 13.6259C504.369 11.9563 508.204 11.1291 513.424 11.1291C519.245 11.1291 523.516 11.8661 526.254 13.3552C528.991 14.8443 530.541 17.7774 530.887 22.1845L531.248 30.3821C534.812 30.2617 538.498 30.2617 542.303 30.3821C546.109 30.5024 549.373 30.6829 552.11 30.9236C555.073 31.2846 557.074 32.2622 558.082 33.8717C559.089 35.4811 559.661 37.993 559.781 41.4526C559.781 42.7612 559.841 43.7088 559.962 44.3104C559.962 48.2362 559.661 51.064 559.074 52.7787C558.473 54.5085 556.878 55.6667 554.261 56.2533C552.712 56.7346 550.305 57.0204 547.041 57.1407C543.777 57.2611 539.761 57.3212 535.008 57.3212H531.624C531.503 62.7963 531.443 67.5795 531.443 71.6708V88.8781C531.564 93.1649 532.03 96.2484 532.872 98.1436C533.699 100.039 535.58 101.197 538.483 101.618C541.386 102.039 546.003 101.468 552.291 99.9185C554.065 99.6779 555.555 100.009 556.743 100.896C557.931 101.784 558.819 103.333 559.42 105.529C560.022 107.725 560.187 110.553 559.962 113.997C559.721 119.352 556.668 123.203 550.786 125.579C544.905 127.956 537.866 129.144 529.668 129.144C522.298 129.024 516.206 127.504 511.393 124.601V124.571Z" fill="#303240"/>
<path d="M17.3578 120.029C11.9429 117.321 7.68616 113.305 4.61771 107.966C1.53422 102.626 0 96.143 0 88.517C0 80.891 1.42893 74.1675 4.31689 68.3916C7.1898 62.6006 11.3713 58.1033 16.8765 54.9145C22.3816 51.7107 29.06 50.1163 36.9417 50.1163C44.8234 50.1163 51.0355 51.6355 55.5931 54.6738C60.1506 57.7122 63.2491 61.3823 64.8887 65.6992C66.5282 70.0161 67.2351 74.3029 66.9794 78.5596C66.8892 80.4548 66.1521 81.8837 64.7683 82.8765C63.3695 83.8542 61.5645 84.4709 59.3534 84.7266C56.1496 85.1327 53.382 84.9522 51.0355 84.17C48.6891 83.3879 47.4857 81.974 47.4105 79.9284C47.1699 76.8148 46.117 74.5134 44.2669 73.0394C42.4168 71.5653 39.604 70.8283 35.8286 70.8283C31.5569 70.9035 28.323 72.6182 26.0969 75.9424C23.8707 79.2665 22.7727 83.3879 22.7727 88.3215C22.7727 91.9314 23.4496 94.9096 24.8033 97.2561C26.157 99.6025 27.9018 101.317 30.0377 102.43C32.1736 103.543 34.4749 104.1 36.9267 104.1C39.965 104.175 42.6575 103.889 44.9889 103.243C47.3353 102.581 49.5163 101.678 51.577 100.535L54.0438 99.3017C55.7736 98.4895 57.4281 98.4443 59.0376 99.1814C60.6319 99.9184 62.2564 101.558 63.8959 104.1C65.6257 106.807 66.468 109.064 66.4229 110.869C66.3778 112.674 65.4602 114.403 63.6553 116.043C60.9478 118.419 57.383 120.42 52.9458 122.014C48.5086 123.609 42.9733 124.421 36.325 124.421C29.1051 124.255 22.7877 122.826 17.3578 120.104V120.029ZM32.8204 154.128C30.4739 153.556 28.7742 152.819 27.7063 151.917C26.9693 151.255 26.5932 150.412 26.5932 149.39C26.5932 148.367 26.9993 147.194 27.8266 145.885C28.5636 144.652 29.3007 143.854 30.0377 143.478C30.7747 143.102 31.7223 143.178 32.8655 143.659L33.8432 144.155C34.6554 144.486 35.5429 144.817 36.4905 145.133C37.4381 145.464 38.3105 145.629 39.1378 145.629C40.8675 145.629 42.1761 145.298 43.0786 144.652C43.9811 143.99 44.4323 143.012 44.4323 141.703C44.4323 140.47 43.9961 139.432 43.1388 138.56C42.2814 137.702 41.0631 137.221 39.4988 137.146C38.7617 137.056 37.9645 137.221 37.0921 137.642C36.2348 138.048 35.588 138.424 35.1819 138.755C34.2794 139.568 33.061 139.778 31.5569 139.372C30.0377 138.966 28.8645 138.304 28.0522 137.402C27.1498 136.574 26.6835 135.867 26.6383 135.251C26.5932 134.634 26.8188 133.716 27.3152 132.483C28.7893 128.467 29.8121 125.729 30.3987 124.301C30.9703 122.857 31.5719 121.879 32.1886 121.352C32.8053 120.826 33.6025 120.555 34.5953 120.555C35.4977 120.555 36.1295 120.766 36.5055 121.172C36.8815 121.578 36.9718 122.405 36.8063 123.639C36.6409 124.872 36.1445 126.722 35.3323 129.174C36.9718 128.437 38.8219 128.106 40.8675 128.196C45.3799 128.196 49.2005 129.43 52.314 131.896C55.4276 134.363 56.9468 137.432 56.8716 141.132C56.7813 145.569 55.1719 148.999 52.0132 151.42C48.8545 153.842 44.5677 155.045 39.1528 155.045C37.2576 155.045 35.1518 154.759 32.8053 154.188L32.8204 154.128Z" fill="#303240"/>
<path d="M86.1271 114.855C79.4337 108.612 76.0945 99.753 76.0945 88.2614C76.0945 80.3797 77.5986 73.5659 80.5919 67.8201C83.5851 62.0743 87.902 57.6822 93.5275 54.6438C99.153 51.6054 105.816 50.0862 113.533 50.0862C121.249 50.0862 127.747 51.6054 133.297 54.6438C138.832 57.6822 143.059 62.0592 145.977 67.7599C148.895 73.4606 150.354 80.2593 150.354 88.141C150.354 99.6327 147.15 108.522 140.742 114.794C134.335 121.067 125.551 124.21 114.39 124.21C102.236 124.21 92.8205 121.097 86.1271 114.855ZM123.866 98.5948C126.573 95.5564 127.927 91.5705 127.927 86.6519C127.927 81.7334 126.573 77.7624 123.866 74.7692C121.159 71.776 117.714 70.2718 113.518 70.2718C108.749 70.2718 105.079 71.7308 102.492 74.6489C99.905 77.5669 98.6115 81.5679 98.6115 86.6519C98.6115 91.7359 99.905 95.767 102.492 98.7151C105.079 101.663 108.749 103.152 113.518 103.152C117.699 103.152 121.159 101.633 123.866 98.5948Z" fill="#303240"/>
<path d="M166.598 121.383C164.703 120.074 163.605 117.532 163.274 113.742C162.868 108.733 162.657 97.6924 162.657 80.6204C162.657 63.5484 162.868 52.2522 163.274 46.7621C163.605 43.8892 164.237 41.6932 165.184 40.174C166.132 38.6548 167.335 37.632 168.824 37.0905C170.299 36.564 172.269 36.2933 174.736 36.2933C177.368 36.2933 179.474 36.534 181.083 37.0303C182.678 37.5267 184.001 38.5345 185.024 40.0537C186.047 41.5728 186.649 43.814 186.814 46.7621C186.979 49.0635 187.085 51.5603 187.115 54.2678C187.16 56.9753 187.22 59.9685 187.295 63.2626C187.205 67.2786 187.175 71.9715 187.175 77.2962C192.424 74.9949 196.516 71.9565 199.434 68.1811C202.352 64.4057 204.337 60.9161 205.405 57.7123C205.902 56.0728 206.548 54.8845 207.376 54.1475C208.188 53.4104 209.406 52.899 211.016 52.6132C212.61 52.3275 214.941 52.147 217.98 52.0567C221.83 52.0567 224.643 52.3876 226.418 53.0344C228.178 53.6962 229.02 55.0048 228.945 56.9753C228.78 59.8482 227.727 63.052 225.801 66.5867C223.876 70.1214 221.364 73.4456 218.296 76.5592C215.212 79.6727 211.948 82.0192 208.504 83.5835C212.279 85.1478 215.814 87.8703 219.093 91.766C222.372 95.6618 225.004 99.9185 226.975 104.506C228.945 109.109 229.923 113.005 229.923 116.208C229.923 118.419 228.855 120.134 226.719 121.322C224.583 122.511 221.996 123.142 218.958 123.233C215.678 123.308 213.212 123.233 211.572 122.992C209.933 122.751 208.699 122.195 207.872 121.322C207.045 120.465 206.398 119.172 205.902 117.442C205.24 114.569 204.066 111.455 202.397 108.086C200.712 104.717 198.516 101.618 195.809 98.7904C193.101 95.9626 190.138 94.0523 186.949 93.0596C186.874 96.2634 186.829 100.039 186.829 104.386C186.904 107.334 186.904 110.342 186.829 113.381C186.754 116.013 186.212 118.043 185.235 119.472C184.257 120.916 182.918 121.879 181.234 122.36C179.549 122.857 177.398 123.142 174.766 123.218C171.231 123.293 168.524 122.676 166.643 121.368L166.598 121.383Z" fill="#303240"/>
</g>
<defs>
<clipPath id="clip0_1_116">
<rect width="592" height="154.836" fill="white" transform="translate(0 0.163666)"/>
</clipPath>
</defs>
</svg>
